<svg xmlns="http://www.w3.org/2000/svg" version="1.1" xmlns:xlink="http://www.w3.org/1999/xlink" xmlns:svgjs="http://svgjs.dev/svgjs" width="1500" height="1500" viewBox="0 0 1500 1500"><rect width="1500" height="1500" fill="#ffffff"></rect><g transform="matrix(0.6666666666666666,0,0,0.6666666666666666,249.78425655976667,249.78425655976673)"><svg viewBox="0 0 343 343" data-background-color="#ffffff" preserveAspectRatio="xMidYMid meet" height="1500" width="1500" xmlns="http://www.w3.org/2000/svg" xmlns:xlink="http://www.w3.org/1999/xlink"><g id="tight-bounds" transform="matrix(1,0,0,1,0.0740000000000407,0.07400000000001228)"><svg viewBox="0 0 342.85155851775386 342.85155851775386" height="342.85155851775386" width="342.85155851775386"><g><svg></svg></g><g><svg viewBox="0 0 342.85155851775386 342.85155851775386" height="342.85155851775386" width="342.85155851775386"><g><path d="M0 171.426c0-94.676 76.75-171.426 171.426-171.426 94.676 0 171.426 76.75 171.426 171.426 0 94.676-76.75 171.426-171.426 171.426-94.676 0-171.426-76.75-171.426-171.426zM171.426 331.83c88.589 0 160.404-71.815 160.404-160.404 0-88.589-71.815-160.404-160.404-160.404-88.589 0-160.404 71.815-160.404 160.404 0 88.589 71.815 160.404 160.404 160.404z" data-fill-palette-color="tertiary" fill="#de4924" stroke="transparent"></path><ellipse rx="164.56874808852186" ry="164.56874808852186" cx="171.42577925887693" cy="171.42577925887693" fill="#de4924" stroke="transparent" stroke-width="0" fill-opacity="1" data-fill-palette-color="tertiary"></ellipse></g><g transform="matrix(1,0,0,1,64.84655864529837,82.71672835610032)"><svg viewBox="0 0 213.1584412271571 177.41810180555322" height="177.41810180555322" width="213.1584412271571"><g><svg viewBox="0 0 213.1584412271571 177.41810180555322" height="177.41810180555322" width="213.1584412271571"><g><svg viewBox="0 0 213.1584412271571 177.41810180555322" height="177.41810180555322" width="213.1584412271571"><g transform="matrix(1,0,0,1,0,55.19930743540397)"><svg viewBox="0 0 213.1584412271571 122.21879437014925" height="122.21879437014925" width="213.1584412271571"><g id="textblocktransform"><svg viewBox="0 0 213.1584412271571 122.21879437014925" height="122.21879437014925" width="213.1584412271571" id="textblock"><g><svg viewBox="0 0 213.1584412271571 122.21879437014925" height="122.21879437014925" width="213.1584412271571"><g transform="matrix(1,0,0,1,0,0)"><svg width="213.1584412271571" viewBox="4.49 -35.01 61.059999999999995 35.01" height="122.21879437014925" data-palette-color="#ffffff"><path d="M4.49-35.01L9.5-35.01 9.5-19.9 26.2-35.01 33.25-35.01 14.31-17.85 34.01 0 26.95 0 9.5-15.75 9.5 0 4.49 0 4.49-35.01ZM60.54-14.99L43.55-14.99Q42.53-14.99 41.61-15.39 40.7-15.8 40.01-16.47 39.33-17.14 38.94-18.05 38.55-18.97 38.55-20L38.55-20 38.55-30Q38.55-31.03 38.94-31.95 39.33-32.86 40.01-33.53 40.7-34.2 41.61-34.61 42.53-35.01 43.55-35.01L43.55-35.01 60.54-35.01Q61.57-35.01 62.49-34.61 63.4-34.2 64.08-33.53 64.77-32.86 65.16-31.95 65.55-31.03 65.55-30L65.55-30 65.55-25.49 60.54-25.49 60.54-30 43.55-30 43.55-20 60.54-20Q61.57-20 62.49-19.6 63.4-19.21 64.08-18.53 64.77-17.85 65.16-16.93 65.55-16.02 65.55-14.99L65.55-14.99 65.55-5Q65.55-3.98 65.16-3.06 64.77-2.15 64.08-1.46 63.4-0.78 62.49-0.39 61.57 0 60.54 0L60.54 0 43.06 0Q42.04 0 41.12-0.39 40.21-0.78 39.52-1.46 38.84-2.15 38.45-3.06 38.06-3.98 38.06-5L38.06-5 38.06-9.5 43.06-9.5 43.06-5 60.54-5 60.54-14.99Z" opacity="1" transform="matrix(1,0,0,1,0,0)" fill="#ffffff" class="wordmark-text-0" data-fill-palette-color="quaternary" id="text-0"></path></svg></g></svg></g></svg></g></svg></g><g transform="matrix(1,0,0,1,40.713262274387006,0)"><svg viewBox="0 0 131.7319166783831 26.346383335676617" height="26.346383335676617" width="131.7319166783831"><g><svg xmlns="http://www.w3.org/2000/svg" data-name="Your Icon" viewBox="22.5 39 55 11" x="0" y="0" height="26.346383335676617" width="131.7319166783831" class="icon-icon-0" data-fill-palette-color="quaternary" id="icon-0"><path d="M75 45H60a2.5 2.5 0 0 0 0 5H75a2.5 2.5 0 0 0 0-5Z" fill="#ffffff" data-fill-palette-color="quaternary"></path><path d="M40 45H25a2.5 2.5 0 0 0 0 5H40a2.5 2.5 0 0 0 0-5Z" fill="#ffffff" data-fill-palette-color="quaternary"></path><circle cx="50" cy="42.5" r="3.5" fill="#ffffff" data-fill-palette-color="quaternary"></circle></svg></g></svg></g><g></g></svg></g></svg></g></svg></g></svg></g><defs></defs></svg><rect width="342.85155851775386" height="342.85155851775386" fill="none" stroke="none" visibility="hidden"></rect></g></svg></g></svg>